<?xml version="1.0" standalone="no"?>
<!DOCTYPE svg PUBLIC "-//W3C//DTD SVG 20010904//EN"
 "http://www.w3.org/TR/2001/REC-SVG-20010904/DTD/svg10.dtd">
<svg version="1.0" xmlns="http://www.w3.org/2000/svg"
 width="1400.000000pt" height="242.000000pt" viewBox="0 0 1400.000000 242.000000"
 preserveAspectRatio="xMidYMid meet">
<metadata>
Created by potrace 1.15, written by Peter Selinger 2001-2017
</metadata>
<g transform="translate(0.000000,242.000000) scale(0.100000,-0.100000)"
fill="#000000" stroke="none">
<path d="M8985 1773 c-32 -164 -106 -545 -165 -848 l-107 -550 55 -3 c30 -2
56 -1 59 1 2 3 63 309 136 681 72 372 134 676 137 676 3 0 203 -310 445 -690
242 -379 442 -690 445 -690 3 0 19 75 37 168 17 92 66 343 108 557 42 215 102
523 134 685 l57 295 -55 3 c-30 2 -57 -1 -60 -7 -3 -5 -64 -314 -136 -685 -71
-372 -132 -676 -135 -676 -3 1 -203 311 -445 690 -242 379 -443 689 -446 690
-4 0 -32 -134 -64 -297z"/>
<path d="M10852 2013 c-6 -27 -45 -226 -87 -443 -42 -217 -111 -575 -154 -795
l-77 -400 54 -3 c30 -2 56 -1 59 2 5 4 31 137 238 1206 47 245 88 453 91 463
5 15 -2 17 -54 17 l-60 0 -10 -47z"/>
<path d="M11360 2056 c0 -2 85 -338 189 -747 105 -409 202 -793 217 -852 22
-88 29 -106 39 -95 15 15 1075 1667 1082 1686 4 9 -12 12 -58 12 l-64 -1 -455
-711 c-353 -552 -456 -706 -462 -692 -4 11 -82 314 -173 674 -92 360 -171 672
-176 693 l-10 37 -64 0 c-36 0 -65 -2 -65 -4z"/>
<path d="M13290 2052 c0 -5 -72 -379 -160 -833 -88 -453 -160 -830 -160 -837
0 -10 15 -12 57 -10 l57 3 157 810 c87 446 160 825 164 843 l6 32 -61 0 c-33
0 -60 -4 -60 -8z"/>
<path d="M553 1709 c-275 -46 -460 -305 -413 -577 42 -246 247 -422 489 -422
133 0 244 44 338 133 l54 51 -28 22 -28 23 -45 -43 c-58 -55 -84 -70 -159 -96
-117 -39 -266 -19 -365 50 -326 223 -220 720 167 791 116 21 242 -14 344 -98
42 -34 43 -34 68 -16 13 10 25 21 25 25 0 12 -101 88 -153 114 -47 25 -176 55
-220 53 -12 -1 -45 -5 -74 -10z"/>
<path d="M5528 1710 c-159 -27 -278 -143 -278 -270 0 -50 40 -129 85 -169 57
-49 108 -68 246 -91 68 -12 141 -26 162 -32 47 -14 120 -77 137 -118 31 -74
-14 -161 -111 -215 -51 -28 -60 -30 -164 -30 -100 0 -115 2 -161 27 -60 32
-109 84 -119 127 -8 36 -7 36 -45 16 -27 -14 -28 -16 -17 -51 39 -127 220
-213 405 -192 246 28 371 253 229 414 -54 61 -117 91 -234 110 -165 26 -197
34 -237 57 -76 43 -119 124 -102 192 9 34 71 102 116 125 19 10 64 24 99 31
73 14 167 1 231 -31 48 -24 106 -90 115 -129 6 -30 7 -31 36 -16 38 20 38 50
0 101 -59 81 -135 126 -241 143 -72 12 -85 12 -152 1z"/>
<path d="M1544 1696 c-126 -40 -252 -146 -307 -260 -96 -197 -58 -426 96 -581
98 -98 210 -145 347 -145 231 0 417 142 484 369 18 62 21 184 5 251 -38 167
-188 322 -353 366 -63 17 -217 17 -272 0z m308 -88 c80 -37 124 -73 175 -141
165 -224 78 -540 -182 -659 -42 -19 -67 -22 -161 -23 -107 0 -112 1 -186 38
-303 149 -330 556 -50 749 78 54 135 69 247 65 83 -2 110 -7 157 -29z"/>
<path d="M3468 1687 c-348 -119 -452 -569 -191 -830 97 -97 216 -147 353 -147
143 0 262 52 360 156 256 274 137 724 -219 828 -83 24 -220 21 -303 -7z m344
-85 c169 -82 272 -277 241 -456 -28 -165 -137 -293 -294 -346 -84 -29 -205
-24 -293 11 -85 33 -176 121 -222 214 -93 189 -33 420 140 540 88 60 144 76
261 72 89 -3 108 -7 167 -35z"/>
<path d="M7006 1690 c-120 -43 -237 -145 -290 -253 -28 -56 -56 -170 -56 -227
0 -58 27 -165 57 -227 34 -72 140 -181 208 -216 90 -45 158 -60 259 -55 109 6
169 25 259 85 146 97 226 264 214 448 -12 193 -138 367 -314 436 -85 33 -255
38 -337 9z m280 -65 c28 -8 78 -32 111 -54 251 -162 256 -546 9 -716 -84 -57
-156 -77 -262 -73 -82 3 -100 8 -167 41 -265 131 -327 469 -126 682 60 64 97
89 171 115 66 24 194 26 264 5z"/>
<path d="M2400 1210 l0 -490 316 0 315 0 -3 33 -3 32 -277 3 -278 2 0 455 0
455 -35 0 -35 0 0 -490z"/>
<path d="M4350 1210 l0 -490 35 0 35 0 0 461 0 461 173 -3 c168 -4 174 -5 232
-34 82 -42 118 -89 123 -165 4 -50 0 -66 -21 -103 -29 -50 -84 -90 -142 -106
-22 -6 -89 -11 -148 -11 -62 0 -107 -4 -105 -9 2 -5 92 -118 201 -250 l198
-241 45 0 46 0 -30 38 c-17 20 -95 116 -175 212 l-144 175 65 8 c82 9 157 43
207 92 112 112 99 290 -29 386 -81 61 -120 69 -357 69 l-209 0 0 -490z"/>
<path d="M7875 1210 l0 -490 33 0 32 0 0 225 0 225 223 2 222 3 0 35 0 35
-222 3 -223 2 0 190 0 190 288 2 287 3 3 33 3 32 -323 0 -323 0 0 -490z"/>
<path d="M2130 346 c-85 -15 -156 -39 -182 -63 -25 -22 -23 -86 3 -133 55 -97
207 -123 639 -109 712 23 1458 41 2260 54 162 3 572 12 910 20 973 23 1602 35
2350 45 382 5 808 14 945 20 138 5 455 14 705 20 1050 24 1296 30 1705 41 457
12 636 26 365 28 -85 0 -621 5 -1190 11 -569 6 -1951 17 -3070 25 -3622 27
-5235 41 -5320 49 -25 3 -79 -1 -120 -8z m222 -117 c73 -20 116 -35 110 -41
-5 -5 -40 -14 -78 -19 -38 -6 -92 -15 -120 -21 -90 -19 -164 5 -164 52 0 68
73 76 252 29z"/>
</g>
</svg>
