<?xml version="1.0" standalone="no"?>
<!DOCTYPE svg PUBLIC "-//W3C//DTD SVG 20010904//EN"
 "http://www.w3.org/TR/2001/REC-SVG-20010904/DTD/svg10.dtd">
<svg version="1.0" xmlns="http://www.w3.org/2000/svg"
 width="1400.000000pt" height="242.000000pt" viewBox="0 0 1400.000000 242.000000"
 preserveAspectRatio="xMidYMid meet">

<g transform="translate(0.000000,242.000000) scale(0.100000,-0.100000)"
fill="#000000" stroke="none">
<path d="M7860 2010 c0 -198 2 -230 15 -230 8 0 15 9 15 20 0 24 8 25 31 4 24
-21 88 -28 119 -12 45 24 70 75 70 140 0 74 -20 122 -59 142 -40 21 -79 20
-119 -4 -18 -11 -35 -20 -37 -20 -3 0 -5 43 -5 95 0 78 -3 95 -15 95 -13 0
-15 -32 -15 -230z m178 30 c42 -39 43 -162 1 -206 -31 -33 -70 -31 -114 7 -33
29 -35 34 -35 94 0 60 2 65 35 94 42 36 81 40 113 11z"/>
<path d="M4980 2183 c0 -10 27 -103 58 -208 54 -177 60 -190 83 -193 25 -3 27
1 69 160 23 90 45 166 49 170 3 4 24 -54 45 -130 54 -188 61 -204 88 -200 19
3 29 26 80 193 63 208 67 228 41 223 -13 -2 -29 -45 -68 -181 -27 -97 -52
-177 -55 -177 -3 0 -28 80 -56 178 -43 149 -54 177 -71 180 -18 3 -25 -15 -67
-175 -26 -98 -48 -182 -50 -188 -2 -5 -8 8 -15 30 -70 249 -98 330 -114 333
-11 2 -17 -3 -17 -15z"/>
<path d="M6930 2183 c0 -10 27 -103 58 -208 54 -177 60 -190 83 -193 25 -3 27
1 69 160 23 90 45 166 49 170 3 4 24 -54 45 -130 54 -188 61 -204 88 -200 19
3 29 26 80 193 63 208 67 228 41 223 -13 -2 -29 -45 -68 -181 -27 -97 -52
-177 -55 -177 -3 0 -28 80 -56 178 -43 149 -54 177 -71 180 -18 3 -25 -15 -67
-175 -26 -98 -48 -182 -50 -188 -2 -5 -8 8 -15 30 -70 249 -98 330 -114 333
-11 2 -17 -3 -17 -15z"/>
<path d="M8457 2194 c-4 -4 -7 -16 -7 -26 0 -14 6 -19 23 -16 14 2 22 10 22
23 0 20 -25 32 -38 19z"/>
<path d="M8620 2131 c0 -35 -3 -40 -25 -43 -35 -4 -36 -22 -2 -26 l27 -3 0
-115 c0 -64 5 -124 10 -134 18 -34 120 -38 120 -5 0 10 -9 12 -33 8 -52 -8
-61 12 -65 138 l-4 108 48 3 c63 4 64 22 2 26 l-48 3 0 40 c0 28 -4 39 -15 39
-11 0 -15 -11 -15 -39z"/>
<path d="M5580 1935 c0 -131 2 -155 15 -155 12 0 15 18 15 105 0 103 0 105 32
141 28 31 36 35 65 31 35 -6 48 15 17 27 -30 11 -53 6 -83 -20 l-31 -26 0 26
c0 16 -6 26 -15 26 -13 0 -15 -24 -15 -155z"/>
<path d="M5860 2079 c-44 -18 -69 -50 -81 -103 -22 -100 22 -179 106 -192 84
-12 144 26 166 108 17 63 -6 146 -47 173 -31 20 -111 28 -144 14z m115 -41
c52 -45 52 -161 0 -205 -45 -39 -124 -25 -144 26 -20 50 -22 79 -12 119 21 76
101 107 156 60z"/>
<path d="M6150 1935 c0 -131 2 -155 15 -155 12 0 15 19 15 109 l0 109 35 31
c41 36 73 39 106 12 22 -18 24 -27 28 -140 2 -95 6 -121 17 -121 11 0 14 25
14 124 0 115 -2 127 -23 151 -33 39 -91 44 -139 11 l-38 -25 0 24 c0 16 -6 25
-15 25 -13 0 -15 -24 -15 -155z"/>
<path d="M6523 2075 c-17 -7 -36 -22 -42 -34 -13 -24 -14 -81 -2 -100 6 -10 5
-22 -5 -35 -18 -27 -18 -51 1 -70 14 -14 14 -18 -6 -45 -27 -36 -20 -73 18
-98 41 -27 152 -25 190 3 42 32 52 68 26 102 -18 24 -30 28 -109 39 -49 6 -90
12 -91 12 -6 2 -3 48 3 53 3 3 21 1 39 -5 87 -26 161 39 138 123 -10 38 -9 40
13 40 15 0 24 6 24 15 0 12 -16 15 -82 15 -48 -1 -97 -7 -115 -15z m107 -35
c42 -42 12 -120 -48 -120 -44 0 -72 26 -72 66 0 43 29 74 70 74 17 0 39 -9 50
-20z m30 -248 c29 -24 21 -64 -15 -80 -37 -17 -107 -15 -133 4 -26 18 -28 41
-6 72 13 18 25 22 73 22 42 0 65 -5 81 -18z"/>
<path d="M7573 2076 c-58 -26 -89 -103 -73 -184 11 -60 51 -100 110 -108 56
-8 130 11 130 32 0 12 -5 14 -17 9 -10 -4 -41 -10 -70 -13 -48 -4 -55 -2 -83
26 -20 21 -30 40 -30 61 l0 31 104 0 c58 0 107 4 111 9 11 18 -14 94 -38 119
-30 30 -98 39 -144 18z m115 -38 c11 -13 24 -35 27 -50 l7 -28 -91 0 c-85 0
-91 1 -91 21 0 11 13 34 29 50 37 37 88 40 119 7z"/>
<path d="M8223 2075 c-36 -15 -51 -53 -37 -92 9 -24 22 -34 99 -71 46 -22 57
-53 29 -83 -21 -24 -81 -25 -112 -3 -27 19 -41 11 -26 -14 6 -9 31 -21 56 -26
37 -7 53 -5 84 10 77 37 70 110 -14 146 -61 26 -82 46 -82 74 0 40 54 54 113
29 12 -5 17 -3 17 9 0 33 -72 45 -127 21z"/>
<path d="M8460 1935 c0 -131 2 -155 15 -155 13 0 15 24 15 155 0 131 -2 155
-15 155 -13 0 -15 -24 -15 -155z"/>
<path d="M8873 2076 c-58 -26 -89 -103 -73 -184 11 -60 51 -100 110 -108 56
-8 130 11 130 32 0 12 -5 14 -17 9 -10 -4 -41 -10 -70 -13 -48 -4 -55 -2 -83
26 -20 21 -30 40 -30 61 l0 31 104 0 c58 0 107 4 111 9 11 18 -14 94 -38 119
-30 30 -98 39 -144 18z m115 -38 c11 -13 24 -35 27 -50 l7 -28 -91 0 c-85 0
-91 1 -91 21 0 11 13 34 29 50 37 37 88 40 119 7z"/>
<path d="M6451 1388 c-51 -14 -79 -37 -105 -82 -71 -124 -19 -283 104 -316 50
-13 126 -8 168 12 26 13 27 15 27 103 l0 90 -77 3 c-65 2 -78 0 -78 -13 0 -12
13 -15 60 -15 l60 0 0 -68 c0 -64 -2 -70 -25 -80 -71 -32 -171 1 -205 68 -28
56 -27 152 3 204 41 72 129 95 214 56 46 -20 72 -9 37 17 -42 31 -119 40 -183
21z"/>
<path d="M7270 1331 c0 -35 -3 -40 -25 -43 -35 -4 -36 -22 -2 -26 l27 -3 0
-115 c0 -64 5 -124 10 -134 18 -34 120 -38 120 -5 0 10 -9 12 -33 8 -52 -8
-61 12 -65 138 l-4 108 48 3 c63 4 64 22 2 26 l-48 3 0 40 c0 28 -4 39 -15 39
-11 0 -15 -11 -15 -39z"/>
<path d="M6820 1279 c-44 -18 -69 -50 -81 -103 -22 -100 22 -179 106 -192 84
-12 144 26 166 108 17 63 -6 146 -47 173 -31 20 -111 28 -144 14z m115 -41
c52 -45 52 -161 0 -205 -45 -39 -124 -25 -144 26 -20 50 -22 79 -12 119 21 76
101 107 156 60z"/>
<path d="M7530 1279 c-44 -18 -69 -50 -81 -103 -22 -100 22 -179 106 -192 84
-12 144 26 166 108 17 63 -6 146 -47 173 -31 20 -111 28 -144 14z m115 -41
c52 -45 52 -161 0 -205 -45 -39 -124 -25 -144 26 -20 50 -22 79 -12 119 21 76
101 107 156 60z"/>
<path d="M6430 400 c0 -198 2 -230 15 -230 13 0 15 32 15 230 0 198 -2 230
-15 230 -13 0 -15 -32 -15 -230z"/>
<path d="M7802 620 c-27 -11 -42 -47 -42 -100 0 -34 -3 -39 -25 -42 -35 -4
-36 -22 -2 -26 l27 -3 0 -140 c0 -128 2 -140 18 -137 15 3 17 19 20 141 l3
137 39 0 c29 0 40 4 40 15 0 11 -11 15 -40 15 l-40 0 0 49 c0 59 16 76 65 68
25 -4 35 -2 35 8 0 24 -53 32 -98 15z"/>
<path d="M3840 573 c0 -10 27 -103 58 -208 54 -177 60 -190 83 -193 25 -3 27
1 69 160 23 90 45 166 49 170 3 4 24 -54 45 -130 54 -188 61 -204 88 -200 19
3 29 26 80 193 63 208 67 228 41 223 -13 -2 -29 -45 -68 -181 -27 -97 -52
-177 -55 -177 -3 0 -28 80 -56 178 -43 149 -54 177 -71 180 -18 3 -25 -15 -67
-175 -26 -98 -48 -182 -50 -188 -2 -5 -8 8 -15 30 -70 249 -98 330 -114 333
-11 2 -17 -3 -17 -15z"/>
<path d="M4430 573 c0 -10 27 -103 58 -208 54 -177 60 -190 83 -193 25 -3 27
1 69 160 23 90 45 166 49 170 3 4 24 -54 45 -130 54 -188 61 -204 88 -200 19
3 29 26 80 193 63 208 67 228 41 223 -13 -2 -29 -45 -68 -181 -27 -97 -52
-177 -55 -177 -3 0 -28 80 -56 178 -43 149 -54 177 -71 180 -18 3 -25 -15 -67
-175 -26 -98 -48 -182 -50 -188 -2 -5 -8 8 -15 30 -70 249 -98 330 -114 333
-11 2 -17 -3 -17 -15z"/>
<path d="M5020 573 c0 -10 27 -103 58 -208 54 -177 60 -190 83 -193 25 -3 27
1 69 160 23 90 45 166 49 170 3 4 24 -54 45 -130 54 -188 61 -204 88 -200 19
3 29 26 80 193 63 208 67 228 41 223 -13 -2 -29 -45 -68 -181 -27 -97 -52
-177 -55 -177 -3 0 -28 80 -56 178 -43 149 -54 177 -71 180 -18 3 -25 -15 -67
-175 -26 -98 -48 -182 -50 -188 -2 -5 -8 8 -15 30 -70 249 -98 330 -114 333
-11 2 -17 -3 -17 -15z"/>
<path d="M5816 580 c-72 -22 -115 -99 -116 -205 0 -95 27 -151 90 -183 36 -19
56 -22 96 -19 60 6 114 31 114 52 0 19 -3 19 -47 -5 -112 -60 -212 11 -213
150 0 79 16 124 56 159 42 37 95 41 154 11 41 -21 61 -13 35 14 -31 31 -111
43 -169 26z"/>
<path d="M7957 584 c-4 -4 -7 -99 -7 -211 0 -196 1 -203 20 -203 19 0 20 8 22
184 l3 185 101 -177 c55 -97 108 -180 116 -186 8 -5 23 -6 32 -3 15 6 16 28
14 209 -3 183 -5 203 -20 206 -16 3 -18 -12 -20 -179 l-3 -183 -101 180 c-84
150 -104 179 -125 182 -14 2 -28 0 -32 -4z"/>
<path d="M8377 584 c-4 -4 -7 -16 -7 -26 0 -14 6 -19 23 -16 14 2 22 10 22 23
0 20 -25 32 -38 19z"/>
<path d="M8817 584 c-4 -4 -7 -16 -7 -26 0 -14 6 -19 23 -16 14 2 22 10 22 23
0 20 -25 32 -38 19z"/>
<path d="M6140 469 c-44 -18 -69 -50 -81 -103 -22 -100 22 -179 106 -192 84
-12 144 26 166 108 17 63 -6 146 -47 173 -31 20 -111 28 -144 14z m115 -41
c52 -45 52 -161 0 -205 -45 -39 -124 -25 -144 26 -20 50 -22 79 -12 119 21 76
101 107 156 60z"/>
<path d="M6630 469 c-44 -18 -69 -50 -81 -103 -22 -100 22 -179 106 -192 84
-12 144 26 166 108 17 63 -6 146 -47 173 -31 20 -111 28 -144 14z m115 -41
c52 -45 52 -161 0 -205 -45 -39 -124 -25 -144 26 -20 50 -22 79 -12 119 21 76
101 107 156 60z"/>
<path d="M6920 325 c0 -131 2 -155 15 -155 12 0 15 18 15 105 0 103 0 105 32
141 28 31 36 35 65 31 35 -6 48 15 17 27 -30 11 -53 6 -83 -20 l-31 -26 0 26
c0 16 -6 26 -15 26 -13 0 -15 -24 -15 -155z"/>
<path d="M7163 465 c-36 -15 -51 -53 -37 -92 9 -24 22 -34 99 -71 46 -22 57
-53 29 -83 -21 -24 -81 -25 -112 -3 -27 19 -41 11 -26 -14 6 -9 31 -21 56 -26
37 -7 53 -5 84 10 77 37 70 110 -14 146 -61 26 -82 46 -82 74 0 40 54 54 113
29 12 -5 17 -3 17 9 0 33 -72 45 -127 21z"/>
<path d="M7460 469 c-44 -18 -69 -50 -81 -103 -22 -100 22 -179 106 -192 84
-12 144 26 166 108 17 63 -6 146 -47 173 -31 20 -111 28 -144 14z m115 -41
c52 -45 52 -161 0 -205 -45 -39 -124 -25 -144 26 -20 50 -22 79 -12 119 21 76
101 107 156 60z"/>
<path d="M8380 325 c0 -131 2 -155 15 -155 13 0 15 24 15 155 0 131 -2 155
-15 155 -13 0 -15 -24 -15 -155z"/>
<path d="M8491 463 c0 -10 24 -79 52 -153 43 -110 56 -136 73 -138 19 -3 26 8
49 70 16 40 41 107 57 148 33 88 33 90 10 90 -14 0 -27 -25 -56 -107 -21 -60
-43 -119 -48 -133 -9 -22 -15 -11 -57 105 -33 92 -51 131 -64 133 -11 2 -17
-3 -16 -15z"/>
<path d="M8820 325 c0 -131 2 -155 15 -155 13 0 15 24 15 155 0 131 -2 155
-15 155 -13 0 -15 -24 -15 -155z"/>
<path d="M9173 466 c-44 -20 -67 -68 -68 -141 0 -80 25 -125 83 -145 37 -13
47 -13 84 0 40 15 69 43 56 56 -4 3 -19 -3 -34 -15 -31 -25 -81 -27 -111 -6
-49 35 -54 165 -8 211 30 30 80 31 115 4 30 -23 40 -25 40 -7 0 43 -98 70
-157 43z"/>
<path d="M9470 469 c-44 -18 -69 -50 -81 -103 -22 -100 22 -179 106 -192 84
-12 144 26 166 108 17 63 -6 146 -47 173 -31 20 -111 28 -144 14z m115 -41
c52 -45 52 -161 0 -205 -45 -39 -124 -25 -144 26 -20 50 -22 79 -12 119 21 76
101 107 156 60z"/>
<path d="M9760 325 c0 -131 2 -155 15 -155 12 0 15 19 15 109 l0 109 35 31
c42 36 74 39 101 10 16 -18 20 -40 23 -140 2 -93 6 -119 17 -119 11 0 14 22
14 109 l0 109 35 31 c42 36 74 39 101 10 16 -18 20 -40 22 -141 3 -105 6 -119
20 -116 15 3 17 19 17 113 0 122 -12 166 -51 184 -38 17 -68 13 -109 -15 l-37
-25 -20 20 c-36 40 -102 39 -145 -1 l-23 -21 0 26 c0 17 -5 27 -15 27 -13 0
-15 -24 -15 -155z"/>
<path d="M5567 216 c-10 -26 4 -47 27 -44 15 2 21 10 21 28 0 29 -38 41 -48
16z"/>
<path d="M8967 216 c-10 -26 4 -47 27 -44 15 2 21 10 21 28 0 29 -38 41 -48
16z"/>
</g>
</svg>
