<?xml version="1.0" standalone="no"?>
<!DOCTYPE svg PUBLIC "-//W3C//DTD SVG 20010904//EN"
 "http://www.w3.org/TR/2001/REC-SVG-20010904/DTD/svg10.dtd">
<svg version="1.0" xmlns="http://www.w3.org/2000/svg"
 width="1400.000000pt" height="242.000000pt" viewBox="0 0 1400.000000 242.000000"
 preserveAspectRatio="xMidYMid meet">
<metadata>
Created by potrace 1.15, written by Peter Selinger 2001-2017
</metadata>
<g transform="translate(0.000000,242.000000) scale(0.100000,-0.100000)"
fill="#000000" stroke="none">
<path d="M5460 1874 c0 -3 21 -71 46 -150 41 -129 48 -144 68 -144 17 0 29 13
51 60 16 33 32 57 36 53 3 -5 14 -32 24 -60 14 -43 21 -53 39 -53 20 0 32 20
86 138 34 75 64 143 67 150 3 7 -3 12 -14 12 -16 0 -31 -26 -73 -122 -29 -68
-56 -127 -60 -131 -4 -4 -16 24 -28 63 l-21 72 29 59 30 59 -23 0 c-17 0 -26
-9 -37 -37 l-13 -38 -12 35 c-8 23 -19 36 -33 38 l-21 3 21 -63 20 -63 -32
-69 c-17 -37 -33 -67 -34 -65 -2 2 -20 61 -41 132 -31 103 -41 127 -56 127
-11 0 -19 -3 -19 -6z"/>
<path d="M6970 1874 c0 -3 21 -71 46 -150 41 -129 48 -144 68 -144 17 0 29 13
51 60 16 33 32 57 36 53 3 -5 14 -32 24 -60 14 -43 21 -53 39 -53 20 0 32 20
86 138 34 75 64 143 67 150 3 7 -3 12 -14 12 -16 0 -31 -26 -73 -122 -29 -68
-56 -127 -60 -131 -4 -4 -16 24 -28 63 l-21 72 29 59 30 59 -23 0 c-17 0 -26
-9 -37 -37 l-13 -38 -12 35 c-8 23 -19 36 -33 38 l-21 3 21 -63 20 -63 -32
-69 c-17 -37 -33 -67 -34 -65 -2 2 -20 61 -41 132 -31 103 -41 127 -56 127
-11 0 -19 -3 -19 -6z"/>
<path d="M7666 1788 c-10 -153 -8 -208 9 -208 8 0 15 9 15 20 0 20 0 20 29 -1
85 -63 195 48 147 147 -20 42 -56 58 -120 50 l-48 -5 7 44 c5 40 4 45 -13 45
-17 0 -20 -10 -26 -92z m154 -38 c43 -43 10 -140 -49 -140 -14 0 -37 7 -49 16
-18 13 -22 25 -22 73 0 32 3 61 7 64 15 16 93 7 113 -13z"/>
<path d="M6114 1791 c-55 -24 -80 -103 -51 -161 19 -37 84 -57 136 -41 51 15
74 49 74 107 0 60 -33 95 -94 100 -24 2 -54 0 -65 -5z m106 -48 c58 -74 -32
-171 -108 -117 -30 21 -31 88 0 121 31 33 80 31 108 -4z"/>
<path d="M6335 1788 c-2 -7 -5 -57 -7 -111 -3 -85 -1 -97 13 -97 14 0 18 14
24 70 9 86 31 120 80 120 53 0 67 -28 59 -117 -6 -70 -6 -73 15 -73 20 0 21 5
21 94 0 110 -8 121 -80 121 -33 0 -54 -6 -69 -19 -21 -19 -21 -19 -21 2 0 24
-28 31 -35 10z"/>
<path d="M6665 1787 c-62 -29 -90 -96 -65 -156 21 -52 106 -66 152 -24 17 15
18 14 18 -25 0 -64 -27 -85 -101 -80 -42 3 -59 1 -59 -8 0 -16 70 -27 119 -19
65 11 71 26 80 176 4 74 6 136 5 137 -8 12 -123 11 -149 -1z m112 -73 c-7 -73
-36 -106 -86 -102 -23 2 -40 11 -54 29 -17 24 -18 31 -7 63 14 44 49 65 109
66 l44 0 -6 -56z"/>
<path d="M7474 1791 c-61 -26 -85 -122 -44 -174 31 -40 149 -49 163 -13 4 9
-8 11 -48 8 -44 -4 -56 -1 -74 17 -11 11 -21 32 -21 46 0 25 1 25 86 25 l86 0
-7 28 c-3 15 -14 35 -24 45 -21 21 -86 31 -117 18z"/>
<path d="M8404 1791 c-61 -26 -85 -122 -44 -174 31 -40 149 -49 163 -13 4 9
-8 11 -48 8 -44 -4 -56 -1 -74 17 -11 11 -21 32 -21 46 0 25 1 25 86 25 l86 0
-7 28 c-3 15 -14 35 -24 45 -21 21 -86 31 -117 18z"/>
<path d="M6567 1325 c-108 -38 -141 -163 -64 -240 37 -37 97 -50 182 -40 l55
7 0 63 c0 35 3 70 6 79 5 13 -3 16 -50 16 -43 0 -56 -3 -56 -15 0 -11 11 -15
36 -15 l36 0 -7 -47 c-4 -27 -10 -52 -15 -57 -5 -5 -36 -7 -70 -4 -48 3 -66
10 -86 29 -51 52 -37 149 28 189 27 17 46 20 106 18 49 -2 72 0 72 8 0 24
-114 31 -173 9z"/>
<path d="M6854 1251 c-55 -24 -80 -103 -51 -161 19 -37 84 -57 136 -41 51 15
74 49 74 107 0 60 -33 95 -94 100 -24 2 -54 0 -65 -5z m106 -48 c58 -74 -32
-171 -108 -117 -30 21 -31 88 0 121 31 33 80 31 108 -4z"/>
<path d="M7384 1251 c-55 -24 -80 -103 -51 -161 19 -37 84 -57 136 -41 51 15
74 49 74 107 0 60 -33 95 -94 100 -24 2 -54 0 -65 -5z m106 -48 c58 -74 -32
-171 -108 -117 -30 21 -31 88 0 121 31 33 80 31 108 -4z"/>
<path d="M7500 790 c-11 -11 -20 -31 -20 -45 0 -16 -6 -25 -15 -25 -8 0 -15
-7 -15 -15 0 -8 7 -15 16 -15 15 0 16 -11 10 -95 -6 -91 -6 -95 14 -95 18 0
20 6 20 73 0 96 6 115 38 119 38 5 40 28 2 28 -28 0 -31 3 -28 28 3 23 7 27
36 27 33 0 44 18 16 29 -29 11 -54 6 -74 -14z"/>
<path d="M6045 785 c-47 -17 -70 -43 -86 -95 -35 -116 60 -207 191 -185 61 10
51 31 -14 27 -35 -3 -64 2 -85 12 -69 36 -80 132 -22 190 29 29 37 31 100 31
48 0 67 4 64 12 -10 25 -86 30 -148 8z"/>
<path d="M7610 711 c0 -48 -3 -116 -6 -150 -7 -58 -6 -61 15 -61 20 0 21 5 22
98 2 170 2 170 94 27 70 -108 83 -124 108 -124 26 -1 27 0 27 57 0 33 3 100 6
150 7 89 6 92 -14 92 -21 0 -22 -5 -24 -127 l-3 -128 -85 127 c-74 111 -88
128 -112 128 l-28 0 0 -89z"/>
<path d="M4710 713 c0 -4 16 -54 36 -110 31 -87 40 -103 58 -103 18 0 26 14
50 80 15 44 32 82 36 85 4 3 10 -9 14 -25 3 -17 13 -55 22 -85 13 -47 19 -55
40 -55 13 0 24 4 24 9 0 5 20 53 44 106 l43 96 38 -105 c32 -90 41 -106 59
-106 18 0 26 14 50 80 15 44 32 82 36 85 4 3 10 -9 14 -25 3 -17 13 -55 22
-85 13 -45 19 -55 37 -55 18 0 29 16 57 82 19 44 41 94 48 109 11 26 10 29 -6
29 -13 0 -27 -22 -51 -82 -19 -46 -37 -87 -41 -91 -4 -4 -18 33 -30 82 -20 78
-27 91 -45 91 -17 0 -27 -16 -54 -90 -18 -50 -35 -89 -37 -87 -3 2 -17 42 -33
88 -27 82 -28 84 -62 87 l-35 3 -33 -83 c-19 -46 -37 -87 -41 -91 -4 -4 -18
33 -30 82 -20 78 -27 91 -45 91 -17 0 -27 -16 -54 -90 -18 -50 -35 -89 -37
-87 -3 2 -17 42 -33 88 -18 55 -33 85 -44 87 -10 2 -17 0 -17 -5z"/>
<path d="M5460 713 c0 -4 16 -54 36 -110 31 -87 40 -103 58 -103 18 0 26 14
50 80 15 44 32 82 36 85 4 3 10 -9 14 -25 3 -17 13 -55 22 -85 13 -45 19 -55
37 -55 18 0 29 16 57 82 19 44 41 94 48 109 11 26 10 29 -6 29 -13 0 -27 -22
-51 -82 -19 -46 -37 -87 -41 -91 -4 -4 -18 33 -30 82 -20 78 -27 91 -45 91
-17 0 -27 -16 -54 -90 -18 -50 -35 -89 -37 -87 -3 2 -17 42 -33 88 -18 55 -33
85 -44 87 -10 2 -17 0 -17 -5z"/>
<path d="M6294 711 c-55 -24 -80 -103 -51 -161 19 -37 84 -57 136 -41 51 15
74 49 74 107 0 60 -33 95 -94 100 -24 2 -54 0 -65 -5z m106 -48 c58 -74 -32
-171 -108 -117 -30 21 -31 88 0 121 31 33 80 31 108 -4z"/>
<path d="M6664 711 c-55 -24 -80 -103 -51 -161 19 -37 84 -57 136 -41 51 15
74 49 74 107 0 60 -33 95 -94 100 -24 2 -54 0 -65 -5z m106 -48 c58 -74 -32
-171 -108 -117 -30 21 -31 88 0 121 31 33 80 31 108 -4z"/>
<path d="M7264 711 c-55 -24 -80 -103 -51 -161 19 -37 84 -57 136 -41 51 15
74 49 74 107 0 60 -33 95 -94 100 -24 2 -54 0 -65 -5z m106 -48 c58 -74 -32
-171 -108 -117 -30 21 -31 88 0 121 31 33 80 31 108 -4z"/>
<path d="M8020 713 c0 -5 17 -54 37 -110 52 -140 63 -140 126 1 26 57 47 107
47 110 0 3 -8 6 -17 6 -13 0 -28 -24 -52 -86 -19 -47 -37 -87 -41 -89 -4 -2
-19 36 -35 85 -22 70 -33 90 -47 90 -10 0 -18 -3 -18 -7z"/>
<path d="M8734 711 c-55 -24 -80 -103 -51 -161 19 -37 84 -57 136 -41 51 15
74 49 74 107 0 60 -33 95 -94 100 -24 2 -54 0 -65 -5z m106 -48 c58 -74 -32
-171 -108 -117 -30 21 -31 88 0 121 31 33 80 31 108 -4z"/>
<path d="M8950 610 c0 -88 3 -110 14 -110 10 0 16 21 21 76 8 84 26 114 70
114 37 0 47 -29 39 -115 -6 -71 -6 -75 14 -75 18 0 20 8 24 74 4 81 23 116 63
116 38 0 47 -22 43 -109 -3 -69 -1 -81 13 -81 12 0 18 14 23 61 10 105 8 126
-16 143 -30 21 -71 20 -99 -3 -23 -19 -24 -19 -48 0 -13 10 -32 19 -43 19 -22
0 -60 -18 -70 -34 -5 -6 -8 -1 -8 12 0 15 -6 22 -20 22 -19 0 -20 -7 -20 -110z"/>
</g>
</svg>
